HIERARCHY
ROOT Hips
{
	OFFSET 0.000000 0.000000 0.000000
	CHANNELS 6 Xposition Yposition Zposition Zrotation Yrotation Xrotation 
	JOINT LHipJoint
	{
		OFFSET 0.000000 0.000000 0.000000
		CHANNELS 3 Zrotation Yrotation Xrotation
		JOINT LeftUpLeg
		{
			OFFSET 1.363060 -1.794630 0.839290
			CHANNELS 3 Zrotation Yrotation Xrotation
			JOINT LeftLeg
			{
				OFFSET 2.448110 -6.726130 0.000000
				CHANNELS 3 Zrotation Yrotation Xrotation
				JOINT LeftFoot
				{
					OFFSET 2.562200 -7.039590 0.000000
					CHANNELS 3 Zrotation Yrotation Xrotation
					JOINT LeftToeBase
					{
						OFFSET 0.157640 -0.433110 2.322550
						CHANNELS 3 Zrotation Yrotation Xrotation
						End Site
						{
							OFFSET 0.000000 0.000000 0.000000
						}
					}
				}
			}
		}
	}
	JOINT RHipJoint
	{
		OFFSET 0.000000 0.000000 0.000000
		CHANNELS 3 Zrotation Yrotation Xrotation
		JOINT RightUpLeg
		{
			OFFSET -1.305520 -1.794630 0.839290
			CHANNELS 3 Zrotation Yrotation Xrotation
			JOINT RightLeg
			{
				OFFSET -2.542530 -6.985550 0.000000
				CHANNELS 3 Zrotation Yrotation Xrotation
				JOINT RightFoot
				{
					OFFSET -2.568260 -7.056230 0.000000
					CHANNELS 3 Zrotation Yrotation Xrotation
					JOINT RightToeBase
					{
						OFFSET -0.164730 -0.452590 2.363150
						CHANNELS 3 Zrotation Yrotation Xrotation
						End Site
						{
							OFFSET 0.000000 0.000000 0.000000
						}
					}
				}
			}
		}
	}
	JOINT LowerBack
	{
		OFFSET 0.000000 0.000000 0.000000
		CHANNELS 3 Zrotation Yrotation Xrotation
		JOINT Spine
		{
			OFFSET 0.028270 2.035590 -0.193380
			CHANNELS 3 Zrotation Yrotation Xrotation
			JOINT Spine1
			{
				OFFSET 0.056720 2.048850 -0.042750
				CHANNELS 3 Zrotation Yrotation Xrotation
				JOINT Neck
				{
					OFFSET 0.000000 0.000000 0.000000
					CHANNELS 3 Zrotation Yrotation Xrotation
					JOINT Neck1
					{
						OFFSET -0.054170 1.746240 0.172020
						CHANNELS 3 Zrotation Yrotation Xrotation
						JOINT Head
						{
							OFFSET 0.104070 1.761360 -0.123970
							CHANNELS 3 Zrotation Yrotation Xrotation
							End Site
							{
								OFFSET 0.000000 0.000000 0.000000
							}
						}
					}
				}
				JOINT LeftShoulder
				{
					OFFSET 0.000000 0.000000 0.000000
					CHANNELS 3 Zrotation Yrotation Xrotation
					JOINT LeftArm
					{
						OFFSET 3.362410 1.200890 -0.311210
						CHANNELS 3 Zrotation Yrotation Xrotation
						JOINT LeftForeArm
						{
							OFFSET 4.983000 -0.000000 -0.000000
							CHANNELS 3 Zrotation Yrotation Xrotation
							JOINT LeftHand
							{
								OFFSET 3.483560 -0.000000 -0.000000
								CHANNELS 3 Zrotation Yrotation Xrotation
								JOINT LeftFingerBase
								{
									OFFSET 0.000000 0.000000 0.000000
									CHANNELS 3 Zrotation Yrotation Xrotation
									JOINT LeftHandIndex1
									{
										OFFSET 0.715260 -0.000000 -0.000000
										CHANNELS 3 Zrotation Yrotation Xrotation
										End Site
										{
											OFFSET 0.000000 0.000000 0.000000
										}
									}
								}
								JOINT LThumb
								{
									OFFSET 0.000000 0.000000 0.000000
									CHANNELS 3 Zrotation Yrotation Xrotation
									End Site
									{
										OFFSET 0.000000 0.000000 0.000000
									}
								}
							}
						}
					}
				}
				JOINT RightShoulder
				{
					OFFSET 0.000000 0.000000 0.000000
					CHANNELS 3 Zrotation Yrotation Xrotation
					JOINT RightArm
					{
						OFFSET -3.136600 1.374050 -0.404650
						CHANNELS 3 Zrotation Yrotation Xrotation
						JOINT RightForeArm
						{
							OFFSET -5.241900 -0.000000 -0.000000
							CHANNELS 3 Zrotation Yrotation Xrotation
							JOINT RightHand
							{
								OFFSET -3.444170 -0.000000 -0.000000
								CHANNELS 3 Zrotation Yrotation Xrotation
								JOINT RightFingerBase
								{
									OFFSET 0.000000 0.000000 0.000000
									CHANNELS 3 Zrotation Yrotation Xrotation
									JOINT RightHandIndex1
									{
										OFFSET -0.622530 -0.000000 -0.000000
										CHANNELS 3 Zrotation Yrotation Xrotation
										End Site
										{
											OFFSET 0.000000 0.000000 0.000000
										}
									}
								}
								JOINT RThumb
								{
									OFFSET 0.000000 0.000000 0.000000
									CHANNELS 3 Zrotation Yrotation Xrotation
									End Site
									{
										OFFSET 0.000000 0.000000 0.000000
									}
								}
							}
						}
					}
				}
			}
		}
	}
}
MOTION
Frames: 5
Frame Time: 0.008333
-0.762621 17.110034 0.375099 118.162199 88.497704 116.977554 -10.038788 0.855801 0.305194 -8.372655 7.329653 -27.074723 -0.875848 1.614818 39.878022 3.008154 18.152851 -11.092880 -1.045100 0.000000 -19.878500 9.415323 -1.647059 -0.222790 12.301224 -4.920296 -2.165672 2.189356 -0.334940 17.720648 -2.949964 -9.282798 -21.018777 -177.651001 0.000000 -11.306401 0.520323 -0.915011 -1.378729 -0.489050 -1.010487 -2.761417 -5.390945 -1.035224 1.766045 5.917218 -8.755704 -7.415179 -2.760716 -0.216269 0.058544 0.000000 0.000000 0.000000 -2.722728 17.371532 1.088025 -57.419396 9.320497 2.018378 -4.129298 -21.017160 -0.004251 1.856339 2.532276 0.045709 -0.152049 -0.051043 -0.000000 0.000000 0.000000 0.000000 0.000000 0.000000 0.000000 9.811240 -4.405208 -0.614650 64.097157 16.698410 9.265013 2.908376 28.996481 0.011037 1.028233 5.216779 0.044502 0.085366 -0.105057 0.000000 0.000000 0.000000 0.000000 0.000000 0.000000 0.000000 
-0.623013 17.111176 0.395122 112.972155 88.589491 111.956013 -9.931594 0.730115 0.429658 -8.702596 7.015983 -27.842917 -0.963728 1.476398 38.232488 2.943762 17.578807 -10.893787 -0.938000 -0.000000 -20.269000 9.414938 -1.698548 -0.204485 12.368314 -4.844005 -1.364514 2.210346 -0.259716 16.875386 -2.954654 -9.252748 -21.050575 -177.648300 0.000000 -11.181200 0.264383 -0.793888 -1.510950 -0.534372 -0.875323 -2.777642 -5.359440 -0.902394 1.802815 5.822468 -8.663940 -7.449178 -2.731041 -0.213797 0.049209 0.000000 0.000000 0.000000 -2.878715 17.872602 1.073525 -57.748421 9.820148 0.156422 -4.202143 -19.514856 -0.003879 2.307086 2.488994 0.054871 -0.152993 -0.050351 -0.000000 0.000000 0.000000 0.000000 0.000000 0.000000 0.000000 9.585210 -4.215166 -0.635291 63.417104 17.419929 10.215709 2.829002 29.933407 0.010914 1.089328 5.165626 0.047106 0.083051 -0.107308 0.000000 0.000000 0.000000 0.000000 0.000000 0.000000 0.000000 
-0.482371 17.110394 0.415046 107.908712 88.673389 107.052766 -9.830090 0.612250 0.551184 -9.009010 6.730793 -28.556036 -1.057462 1.336472 36.518810 2.860227 16.908789 -10.640876 -0.816000 -0.000000 -20.809300 9.410086 -1.752186 -0.191569 12.447990 -4.786117 -0.533913 2.232717 -0.181861 16.003819 -2.956519 -9.211434 -21.075782 -177.648500 -0.000000 -11.087600 0.013012 -0.681836 -1.635228 -0.577884 -0.749274 -2.793192 -5.326874 -0.778878 1.835630 5.730505 -8.603195 -7.486879 -2.699796 -0.211171 0.039096 0.000000 0.000000 0.000000 -3.018414 18.324412 1.058725 -58.072593 10.388877 -1.733103 -4.265461 -18.086053 -0.003437 2.766465 2.421380 0.063334 -0.153702 -0.049589 -0.000000 0.000000 0.000000 0.000000 0.000000 0.000000 0.000000 9.363668 -4.063939 -0.649226 62.723368 18.150416 11.172914 2.748592 30.844320 0.010759 1.136018 5.102948 0.048808 0.080828 -0.109486 0.000000 0.000000 0.000000 0.000000 0.000000 0.000000 0.000000 
-0.340683 17.107730 0.434926 102.963586 88.748724 102.260517 -9.734416 0.501751 0.667859 -9.300793 6.481020 -29.219605 -1.156636 1.195317 34.749018 2.761563 16.171695 -10.334758 -0.683200 0.000000 -21.449200 9.401652 -1.807608 -0.183794 12.535486 -4.747400 0.325392 2.255669 -0.101097 15.103290 -2.955473 -9.160142 -21.090838 -177.652300 0.000000 -11.009000 -0.236701 -0.580354 -1.749874 -0.620358 -0.633619 -2.807493 -5.294524 -0.665923 1.865785 5.641266 -8.545273 -7.529090 -2.667001 -0.208350 0.027789 0.000000 0.000000 0.000000 -3.144321 18.766954 1.046794 -58.379969 10.988729 -3.542115 -4.318102 -16.740377 -0.002972 3.230314 2.347923 0.071099 -0.154242 -0.048867 -0.000000 0.000000 0.000000 0.000000 0.000000 0.000000 0.000000 9.142174 -3.921276 -0.660686 62.025107 18.859237 12.082063 2.667222 31.746948 0.010597 1.191179 5.034467 0.050706 0.078375 -0.111665 0.000000 0.000000 0.000000 0.000000 0.000000 0.000000 0.000000 
-0.198019 17.103079 0.454927 98.148514 88.814039 97.590006 -9.644207 0.398319 0.776889 -9.587712 6.277323 -29.839775 -1.261187 1.053422 32.938091 2.651936 15.395132 -9.982259 -0.544900 -0.000000 -22.150800 9.391119 -1.864197 -0.180918 12.625013 -4.728031 1.213407 2.277878 -0.017381 14.172634 -2.952033 -9.103512 -21.092029 -177.659700 0.000001 -10.910799 -0.489421 -0.489071 -1.852426 -0.662747 -0.527571 -2.820427 -5.262190 -0.562744 1.891904 5.554728 -8.489826 -7.575315 -2.632542 -0.205329 0.015418 0.000000 0.000000 0.000000 -3.256118 19.194188 1.038493 -58.674256 11.627299 -5.249595 -4.361884 -15.488748 -0.002508 3.674556 2.272108 0.077866 -0.154689 -0.048301 -0.000000 0.000000 0.000000 0.000000 0.000000 0.000000 0.000000 8.919886 -3.786107 -0.669404 61.326252 19.541358 12.946789 2.584512 32.648243 0.010420 1.252822 4.955098 0.052803 0.075703 -0.113834 0.000000 0.000000 0.000000 0.000000 0.000000 0.000000 0.000000 
